<svg version="1.1" id="Layer_1" xmlns="http://www.w3.org/2000/svg" xmlns:xlink="http://www.w3.org/1999/xlink" x="0px" y="0px"
	 width="100%" viewBox="0 0 1024 384" enable-background="new 0 0 1024 384" xml:space="preserve">
<path fill="#000000" opacity="1.000000" stroke="none" 
	d="
M255.393860,248.865082 
	C245.308441,252.395523 236.948181,249.658981 229.747314,242.964203 
	C217.748459,231.808655 211.772278,217.632599 209.694321,201.610016 
	C209.440063,199.649521 209.068802,197.704224 208.600571,194.820786 
	C204.703201,200.346512 201.350052,205.214035 197.878815,209.995834 
	C192.592712,217.277649 187.005341,224.326950 180.782471,230.835312 
	C179.190979,232.499832 177.281662,233.905350 175.364212,235.201904 
	C173.008026,236.795120 170.637421,236.691681 168.637772,234.455276 
	C166.691086,232.278107 166.641434,229.871597 168.322113,227.606995 
	C170.701935,224.400284 173.296722,221.354004 175.762894,218.210312 
	C192.042511,197.458130 206.095581,175.238113 219.182510,152.378342 
	C220.338043,150.359879 221.708405,148.459198 223.050751,146.554382 
	C224.370163,144.682114 225.973404,143.080460 228.448105,144.490402 
	C230.669098,145.755783 231.725204,147.786148 231.103363,150.407959 
	C230.168594,154.349091 227.955063,157.727554 226.221024,161.317734 
	C218.014221,178.309280 215.494125,195.811188 221.466354,214.089630 
	C223.379395,219.944626 224.066193,220.024719 229.383148,216.895966 
	C244.165558,208.197296 258.421173,198.684219 272.808533,189.369385 
	C277.050781,186.622818 280.067566,183.300751 281.294891,178.226944 
	C286.376373,157.219986 292.021210,136.307831 294.201630,114.743591 
	C296.611389,90.911209 296.645355,67.213501 287.118164,44.531628 
	C286.945831,44.121338 287.096588,43.575336 287.096588,43.092003 
	C289.935242,41.343098 291.113068,43.658443 292.451935,45.168964 
	C299.233368,52.819736 300.528015,62.570084 302.139008,72.026375 
	C306.671814,98.633018 302.421082,124.732742 296.828949,150.691803 
	C295.123810,158.607285 293.129456,166.460464 290.920715,175.810425 
	C299.154510,170.622421 306.417053,166.498947 311.427551,159.435410 
	C323.667145,142.180786 336.013458,124.982147 349.996216,109.095024 
	C359.213348,98.622551 368.424103,87.943092 380.876434,80.989548 
	C383.580231,79.479713 387.543823,76.412643 389.576294,80.316093 
	C391.720306,84.433800 386.434998,84.657059 384.059540,86.246788 
	C381.989044,87.632401 379.646515,88.701881 377.822479,90.351479 
	C358.305359,108.002449 342.378540,128.649673 327.537659,150.462662 
	C332.476440,152.115799 332.108704,154.921082 329.766205,158.179810 
	C326.971497,162.067673 324.205566,165.968185 323.081848,171.093170 
	C357.989929,149.061981 390.293457,123.199524 425.976746,101.613647 
	C426.972168,104.874245 424.861206,105.896210 423.522095,107.018837 
	C390.028290,135.097931 354.427063,160.308548 317.892029,184.223312 
	C314.322449,186.559860 311.925507,189.432800 310.448090,193.247589 
	C304.835602,207.739136 299.880157,222.458282 299.725464,238.179962 
	C299.596069,251.333710 301.841614,263.967804 313.371216,272.492279 
	C320.639587,277.866180 329.173767,279.999451 338.144409,280.728088 
	C360.850586,282.572357 381.143250,275.299835 400.461639,264.394775 
	C412.653259,257.512695 424.320984,249.864517 434.897827,239.420380 
	C428.621338,234.885452 423.450348,229.826782 422.087311,221.549103 
	C412.421722,225.305740 404.236328,230.704315 393.972717,234.078171 
	C395.972931,230.201324 398.844879,229.520844 401.182434,228.234604 
	C406.433350,225.345352 411.759491,222.592422 417.065247,219.803513 
	C419.247467,218.656448 420.791718,217.257156 420.741821,214.437164 
	C420.391663,194.654327 429.259033,178.316071 441.094788,163.587708 
	C460.539520,139.390747 483.381348,118.819672 510.194550,102.946617 
	C517.374329,98.696266 525.070557,95.313438 533.565857,94.757149 
	C542.902100,94.145782 548.250488,100.485855 546.411743,109.708992 
	C544.261047,120.497185 537.270081,128.546356 530.349976,136.358337 
	C510.159088,159.151703 486.942291,178.575623 462.170410,196.201859 
	C452.661957,202.967575 442.970154,209.446198 432.778107,215.122070 
	C429.393402,217.006973 428.748077,219.200577 430.410248,222.454071 
	C431.240814,224.079819 431.713379,225.973511 432.832794,227.352356 
	C438.557373,234.403778 440.818420,235.286835 446.416107,229.050217 
	C455.322876,219.126846 463.816376,208.874924 471.938263,198.307358 
	C472.889038,197.070251 473.446899,195.345749 476.589294,195.266418 
	C470.529694,209.646988 460.590698,220.533783 450.818207,232.902237 
	C470.213348,229.980988 484.509033,218.426102 499.765778,208.911606 
	C500.818604,211.143097 499.605865,211.795532 498.783539,212.479721 
	C485.778595,223.299744 472.021851,232.873367 455.742157,238.222229 
	C455.425751,238.326187 455.113251,238.551102 454.801941,238.545670 
	C443.260773,238.344742 436.475830,246.622833 428.553345,253.042404 
	C410.910156,267.338531 391.537262,278.596527 369.484924,284.578674 
	C354.701111,288.589050 339.699982,289.955750 324.614136,285.814606 
	C305.880707,280.672302 294.000458,266.701599 291.665588,247.482635 
	C289.616852,230.618912 294.244110,214.839066 298.976654,199.040100 
	C299.257019,198.104126 299.609985,197.189896 300.153625,195.615448 
	C295.379913,197.359924 291.841980,199.636490 289.040863,203.287506 
	C281.507050,213.107162 275.440613,223.814133 269.507172,234.625702 
	C266.253052,240.555161 261.945679,245.576675 255.393860,248.865082 
M513.666016,143.186874 
	C516.283691,140.389816 519.070129,137.730423 521.486084,134.768814 
	C527.676758,127.179886 534.691589,120.079742 537.686951,110.398705 
	C539.688049,103.931068 537.850220,102.049294 531.289185,103.126472 
	C524.776917,104.195648 518.814758,106.616241 513.179321,109.948792 
	C498.175323,118.821526 485.037750,130.108978 472.274200,141.840103 
	C457.481567,155.436142 444.033966,170.127563 435.219421,188.512985 
	C431.835022,195.572174 429.566895,202.817413 429.359680,211.711243 
	C460.979431,192.425537 487.953888,169.136780 513.666016,143.186874 
M239.180038,239.428497 
	C249.083450,243.971283 252.738983,243.363983 258.722717,234.961884 
	C263.460114,228.309814 266.812531,220.820465 269.804321,213.213959 
	C270.090088,212.487396 270.411591,211.617584 269.309479,210.502167 
	C255.488632,215.834167 241.706741,221.908142 226.768860,225.746811 
	C229.895416,231.434677 233.552780,235.828598 239.180038,239.428497 
M264.211578,201.681396 
	C262.304749,203.114670 260.397919,204.547928 257.709076,206.568985 
	C270.406433,203.965225 274.536865,201.131882 275.014374,194.664780 
	C271.414978,196.993805 268.105865,199.135010 264.211578,201.681396 
M287.012512,190.596848 
	C286.958740,191.301300 286.150146,192.056778 287.301117,192.816391 
	C290.701385,189.918243 292.084961,185.673584 295.081573,181.514359 
	C287.999146,187.100433 287.999146,187.100433 287.012512,190.596848 
z"/>
<path fill="#000000" opacity="1.000000" stroke="none" 
	d="
M718.518433,328.304474 
	C703.264099,277.165192 702.768188,225.526520 709.960876,172.149719 
	C701.742737,181.092667 694.664795,188.979355 687.387512,196.677658 
	C669.186829,215.931366 650.951233,235.164566 629.085571,250.440582 
	C626.779724,252.051483 624.299622,253.516357 621.712708,254.601593 
	C614.683533,257.550354 609.416748,254.305511 608.865234,246.644165 
	C608.394104,240.099136 610.370544,233.796082 611.248413,227.382721 
	C611.884460,222.736206 614.049988,218.302048 613.589050,212.889526 
	C610.499023,214.582916 609.079956,217.096558 607.154419,219.068100 
	C594.360352,232.168060 582.565613,246.252533 568.638733,258.234985 
	C565.857361,260.628052 562.913940,262.861481 559.432434,264.144531 
	C554.289368,266.039948 550.501343,263.694397 549.797607,258.233124 
	C549.188293,253.503830 550.458374,248.977341 551.458374,244.426727 
	C553.780273,233.860931 557.244141,223.654938 560.812012,213.153595 
	C555.936829,217.021759 551.058228,220.885651 546.187195,224.758957 
	C535.479858,233.273071 524.241699,241.012741 512.409546,247.881607 
	C510.970612,248.716934 509.468262,249.450043 507.963623,250.163818 
	C504.123932,251.985260 500.031403,253.913589 496.337708,250.434525 
	C492.746338,247.051804 494.057129,242.648224 495.405426,238.711655 
	C503.934814,213.808823 517.327637,191.299774 530.474121,168.719757 
	C539.850891,152.614410 549.958191,136.933640 559.789734,121.094574 
	C561.632446,118.125824 563.695312,115.292404 565.690247,112.419952 
	C566.798767,110.823784 568.266052,109.595596 570.304199,110.190071 
	C572.301208,110.772537 573.130005,112.601654 573.166809,114.486969 
	C573.319763,122.327576 572.328308,130.153839 573.023804,138.107208 
	C569.076050,134.756454 569.364441,129.778473 566.827576,124.495338 
	C543.724182,163.945862 518.174927,201.193512 502.080719,244.337662 
	C505.603821,244.638916 507.594299,243.434097 509.522400,242.256500 
	C531.081787,229.089157 550.563293,213.248062 568.828369,195.874527 
	C572.507263,192.375168 574.356628,187.560028 576.643494,183.152878 
	C587.966736,161.331131 601.650879,141.072464 616.909119,121.855110 
	C619.379150,118.744217 622.362366,116.009010 625.307678,113.318253 
	C627.309998,111.488991 629.789612,110.197144 632.582581,111.548012 
	C635.684143,113.048141 636.705627,115.818382 636.220398,119.077805 
	C635.090698,126.666580 631.475342,133.269608 627.443787,139.587692 
	C614.747131,159.485580 599.483398,177.279282 582.395264,193.515274 
	C579.060425,196.683853 576.692505,200.417953 574.579163,204.411194 
	C566.970276,218.788696 561.500061,233.921387 558.503418,249.920166 
	C558.110046,252.020447 557.747681,254.188950 558.509399,256.659302 
	C561.328613,256.513824 563.328125,254.742188 565.206543,253.044952 
	C585.415161,234.785797 603.406067,214.495514 619.617676,192.653412 
	C623.903198,186.879456 625.506653,179.649841 627.942749,172.946198 
	C638.666138,143.437714 652.699463,115.505508 667.908936,88.117981 
	C668.965271,86.215836 670.320068,84.827606 672.580811,85.004379 
	C675.203491,85.209450 676.118347,87.258247 676.636658,89.451286 
	C678.123352,95.741341 676.050598,101.720932 674.443054,107.568962 
	C668.695984,128.475098 658.817566,147.517578 647.156128,165.673126 
	C642.837769,172.396271 638.077332,178.838135 633.833008,185.605515 
	C626.545715,197.224899 623.888733,210.564774 620.361816,223.546707 
	C619.144409,228.027603 618.448914,232.660065 617.688965,237.252106 
	C617.150940,240.503799 616.849792,243.805939 617.892883,247.304810 
	C621.818420,247.327271 624.563049,244.926163 627.143372,242.871475 
	C646.733398,227.272293 664.633545,209.842819 681.492432,191.369843 
	C692.153503,179.688110 702.281128,167.521027 712.749817,155.661530 
	C717.272034,150.538589 717.993347,143.870407 720.257141,137.873199 
	C730.911438,109.647789 745.600830,83.638214 762.453430,58.721489 
	C769.463867,48.356491 776.758057,38.245712 784.990662,28.828909 
	C786.732361,26.836729 788.718323,25.033039 790.741699,23.319445 
	C792.640015,21.711706 794.914429,21.072527 797.228577,22.389647 
	C799.573364,23.724142 800.090881,26.188278 799.694702,28.501116 
	C799.051331,32.257797 798.216980,36.042271 796.916809,39.616234 
	C787.953308,64.254684 774.155518,86.224083 759.302734,107.634438 
	C748.755127,122.838860 737.441711,137.447861 726.102905,152.055740 
	C720.239563,159.609528 719.820312,169.113327 718.388428,178.089417 
	C715.344116,197.172852 713.768616,216.450089 713.697021,235.739182 
	C713.642212,250.509552 714.686401,265.316162 716.559631,280.026520 
	C718.155457,292.558990 719.418762,305.131256 722.104797,317.504395 
	C725.443542,332.884338 730.995300,347.440155 738.175720,361.407288 
	C738.859802,362.737946 739.551453,364.069000 740.135681,365.443970 
	C740.300049,365.830780 740.094482,366.374695 739.948914,368.289703 
	C729.948792,355.739075 722.799988,343.044739 718.518433,328.304474 
M736.253174,126.648537 
	C756.803406,98.335434 777.969055,70.381073 788.857056,36.432644 
	C765.163269,64.764000 745.645569,95.583382 732.921204,130.492249 
	C733.883118,129.378143 734.845032,128.264023 736.253174,126.648537 
M594.132263,170.763931 
	C606.094177,156.782623 617.208801,142.227509 624.989136,125.355011 
	C623.232666,126.441528 621.747803,127.755249 620.530945,129.282547 
	C613.481750,138.130234 606.989685,147.377640 601.080261,157.023453 
	C598.221802,161.689255 595.531555,166.458145 592.765198,171.180359 
	C592.990906,171.284378 593.209534,171.433517 593.445801,171.470810 
	C593.543823,171.486282 593.679565,171.262482 594.132263,170.763931 
M654.296570,129.737259 
	C650.376404,138.129074 646.662598,146.605545 643.782532,155.431244 
	C652.529907,141.404861 660.600342,127.073395 664.001526,110.570396 
	C660.866455,116.731110 657.731445,122.891830 654.296570,129.737259 
z"/>
</svg>